<svg version="1.1" id="Layer_1" xmlns="http://www.w3.org/2000/svg" xmlns:xlink="http://www.w3.org/1999/xlink" x="0px" y="0px"
	 width="100%" viewBox="0 0 500 500" enable-background="new 0 0 500 500" xml:space="preserve">
<path fill="#023047" opacity="1.000000" stroke="none" 
	d="
M223.000000,501.000000 
	C148.666687,501.000000 74.833366,501.000000 1.000040,501.000000 
	C1.000026,334.333405 1.000026,167.666779 1.000013,1.000129 
	C167.666565,1.000086 334.333130,1.000086 500.999756,1.000043 
	C500.999847,167.666534 500.999847,334.333069 500.999939,500.999817 
	C408.500000,501.000000 316.000000,501.000000 223.000000,501.000000 
M277.873657,356.987885 
	C280.078888,357.279999 282.284119,357.572144 284.582947,357.876678 
	C284.929413,355.784912 285.274872,353.699310 285.741119,350.884491 
	C289.187195,354.454010 288.856812,360.826813 296.104858,359.054688 
	C296.672913,355.954071 297.325684,352.390839 297.978485,348.827637 
	C297.591034,348.583710 297.203583,348.339752 296.816132,348.095825 
	C294.358795,351.262360 292.423859,351.619446 290.115448,348.179291 
	C289.399628,347.112457 286.634979,347.420441 284.071472,346.806854 
	C281.092285,346.644165 278.113068,346.481445 274.719238,345.857452 
	C268.693787,346.314636 263.170013,342.409515 256.963409,343.927185 
	C254.908325,344.429688 251.940048,343.253754 250.659241,344.341064 
	C249.092285,345.671387 248.521027,348.523102 248.176636,350.815735 
	C247.965958,352.218231 248.989960,353.806152 249.446182,355.268219 
	C247.937927,355.953918 246.680756,356.389679 245.562897,357.058380 
	C241.746628,359.341339 239.032593,358.281281 238.253311,353.913025 
	C238.003632,352.513489 238.915253,350.862396 238.540695,349.540192 
	C238.015198,347.685059 236.914902,344.649963 235.830856,344.547455 
	C232.570221,344.239075 228.136093,343.923767 226.090149,345.760925 
	C221.778519,349.632690 218.937057,346.496277 215.403107,345.352264 
	C213.287476,344.667450 210.937195,344.333130 208.716202,344.423950 
	C203.680862,344.629883 198.636734,345.717957 193.639221,345.492706 
	C186.330292,345.163300 179.061707,343.971619 171.767853,343.226349 
	C171.032089,343.151184 170.078720,343.412201 169.502319,343.866943 
	C166.209930,346.464600 163.001190,349.168274 159.109756,352.375122 
	C158.718140,350.530579 158.583618,348.277710 157.711807,346.360016 
	C157.130096,345.080414 155.498352,344.278137 154.336548,343.262238 
	C153.560562,344.379303 152.493362,345.397034 152.071320,346.634796 
	C151.278015,348.961304 150.786392,351.400574 150.299438,353.819153 
	C149.673019,356.930267 149.381683,360.095886 153.793854,360.418213 
	C157.079437,360.658203 160.396622,360.465485 164.874557,360.465485 
	C168.537827,364.072205 174.309036,364.217407 177.662842,360.171570 
	C179.919418,360.964905 182.604446,362.896515 183.922516,362.208618 
	C191.317795,358.349396 199.061432,361.408112 206.213028,361.738281 
	C212.808533,362.042725 218.758850,361.104095 224.982346,360.084686 
	C226.598083,359.820038 228.734329,359.907837 229.983765,360.771179 
	C233.484055,363.189850 236.930481,363.310974 240.890869,362.258362 
	C245.111374,361.136627 249.538742,357.854919 253.762192,362.535614 
	C254.065247,362.871490 255.288361,362.383148 256.082367,362.268951 
	C258.988129,361.851105 261.902588,361.022491 264.796844,361.088745 
	C272.190186,361.257874 272.181091,361.419220 269.522614,354.378510 
	C269.441315,354.163086 269.743866,353.802765 270.020599,353.147156 
	C271.666504,354.123016 273.258087,355.066681 274.958435,356.762573 
	C275.114166,357.761353 275.269897,358.760101 275.425598,359.758881 
	C275.689789,359.792389 275.953979,359.825897 276.218140,359.859406 
	C276.502380,358.913483 276.786591,357.967560 277.873657,356.987885 
M229.926529,225.240723 
	C228.370026,224.958878 226.815308,224.445175 225.256714,224.433044 
	C215.594452,224.357895 205.931335,224.395447 196.268494,224.395538 
	C192.661865,224.395569 189.055222,224.395538 185.421143,224.395538 
	C185.421143,210.221985 185.421143,196.769928 185.421143,183.387222 
	C185.924088,183.202179 186.234482,182.988831 186.545563,182.987823 
	C199.372955,182.946121 212.200684,182.957077 225.027573,182.858398 
	C226.738678,182.845245 228.445602,182.288803 230.602539,181.294449 
	C230.735123,170.275284 230.920074,159.256287 230.959290,148.236786 
	C230.967880,145.823425 230.457291,143.408188 230.066818,140.344986 
	C230.112228,139.910004 230.157639,139.475021 231.114609,139.019043 
	C235.264374,139.013504 239.425186,138.810944 243.561676,139.042450 
	C252.899277,139.565048 262.224884,140.302200 271.733490,141.880386 
	C271.733490,153.157959 271.733490,164.435547 271.733490,175.713120 
	C272.096069,175.916534 272.458618,176.119934 272.821198,176.323349 
	C273.509155,175.618546 274.790253,174.919357 274.796997,174.208099 
	C274.918060,161.428680 274.885071,148.647812 274.885071,135.615723 
	C258.668640,135.615723 242.950073,135.615723 226.747742,135.615723 
	C226.747742,150.491776 226.747742,165.041595 226.747742,180.061508 
	C211.688583,180.061508 197.111145,180.061508 182.705032,180.061508 
	C182.705032,196.110779 182.705032,211.674332 182.705032,227.588120 
	C197.538696,227.588120 211.985962,227.588120 226.908997,227.588120 
	C226.908997,242.511169 226.908997,257.086517 226.908997,271.769714 
	C243.102173,271.769714 258.813141,271.769714 275.085236,271.769714 
	C275.085236,256.904907 275.085236,242.352600 275.085236,227.324860 
	C290.048706,227.324860 304.452484,227.324860 318.824768,227.324860 
	C318.824768,211.244186 318.824768,195.656281 318.824768,179.763733 
	C305.407562,179.763733 292.251953,180.025833 279.112244,179.681458 
	C268.445465,179.401901 258.512939,180.766983 250.699799,188.635849 
	C245.636581,185.325424 240.776840,184.677368 235.956329,188.084000 
	C231.125519,191.497894 230.151886,196.550140 231.252548,201.883789 
	C231.979126,205.404755 232.987656,209.225372 235.047455,212.054520 
	C247.234604,228.793655 254.779999,228.777542 266.572388,211.860748 
	C274.149139,200.991470 271.766846,192.042191 260.204773,184.722672 
	C279.360596,181.159912 297.688019,183.748642 315.824219,182.826385 
	C315.824219,197.101578 315.824219,210.541382 315.824219,224.408752 
	C301.139191,224.408752 286.720703,224.408752 271.847168,224.408752 
	C271.847168,239.431381 271.847168,254.031586 271.847168,268.902893 
	C257.926727,268.902893 244.466705,268.902893 230.795715,268.554901 
	C230.632660,268.333588 230.434753,268.149841 230.088867,267.497681 
	C230.124939,267.328644 230.160995,267.159637 230.624527,266.288177 
	C230.749115,255.474884 230.930374,244.661713 230.957245,233.848175 
	C230.963715,231.239716 230.459122,228.629974 229.926529,225.240723 
M131.147339,335.187958 
	C136.527359,335.476288 141.905304,335.814362 147.288010,336.038177 
	C152.157730,336.240631 156.783035,335.647430 158.835953,330.304901 
	C160.741974,325.344666 158.957794,320.440094 154.086716,316.456421 
	C158.459167,313.827118 159.767563,309.648071 158.074097,305.315460 
	C157.093536,302.806793 154.256897,299.578400 151.946335,299.307037 
	C145.138916,298.507599 138.177231,299.021729 131.039551,299.021729 
	C131.039551,310.982635 131.039551,322.608154 131.147339,335.187958 
M368.168701,321.616089 
	C368.165863,334.601624 368.165863,334.601624 370.417236,335.880127 
	C370.417236,323.494629 370.417236,311.137909 370.417236,298.781158 
	C369.846954,298.744171 369.276703,298.707153 368.706421,298.670166 
	C368.706421,304.136688 368.706421,309.603241 368.706421,315.270752 
	C359.847870,315.270752 352.117798,315.270752 343.825867,315.270752 
	C343.825867,312.087891 343.920105,309.131805 343.797211,306.184784 
	C343.691620,303.652893 343.338043,301.131348 343.094177,298.605225 
	C342.578674,298.700104 342.063202,298.794983 341.547729,298.889862 
	C341.547729,311.246399 341.547729,323.602905 341.547729,335.959442 
	C342.113556,336.007507 342.679352,336.055573 343.245178,336.103607 
	C343.245178,330.166382 343.245178,324.229126 343.245178,317.930145 
	C351.499817,317.930145 358.617798,317.840790 365.726990,318.049591 
	C366.562866,318.074127 367.350647,319.737976 368.168701,321.616089 
M178.511200,317.887390 
	C183.593811,317.887390 188.676422,317.887390 194.365173,317.887390 
	C194.365173,324.330109 194.365173,330.137543 194.365173,336.530396 
	C196.785339,334.113708 197.993744,310.499542 196.689301,300.725250 
	C196.583923,299.935699 195.711639,299.248444 195.195724,298.513672 
	C194.818039,298.652893 194.440338,298.792145 194.062653,298.931366 
	C194.062653,304.336700 194.062653,309.742004 194.062653,315.219208 
	C185.663147,315.219208 177.788284,315.219208 169.398346,315.219208 
	C169.398346,312.098419 169.665421,309.279205 169.320923,306.536804 
	C168.996155,303.951447 170.882645,300.755432 167.409363,298.303436 
	C167.409363,311.226135 167.409363,323.586884 167.409363,335.947601 
	C167.943405,335.989044 168.477432,336.030457 169.011475,336.071899 
	C169.011475,330.106171 169.011475,324.140442 169.011475,317.888977 
	C172.565399,317.888977 175.041321,317.888977 178.511200,317.887390 
M226.792816,315.532745 
	C220.383392,315.532745 213.973984,315.532745 207.598083,315.532745 
	C207.598083,310.202576 207.598083,305.769318 207.598083,300.386658 
	C215.607132,300.386658 223.390808,300.386658 231.174484,300.386658 
	C231.147873,299.946899 231.121277,299.507141 231.094666,299.067383 
	C222.452438,299.067383 213.810196,299.067383 205.139923,299.067383 
	C205.139923,311.429382 205.139923,323.514404 205.139923,335.470703 
	C214.088593,335.470703 222.804993,335.470703 231.521393,335.470703 
	C231.526138,335.053436 231.530884,334.636139 231.535629,334.218872 
	C223.561523,334.218872 215.587418,334.218872 207.620667,334.218872 
	C207.620667,328.434082 207.620667,323.347961 207.620667,317.445374 
	C215.154495,317.445374 222.435577,317.445374 229.716660,317.445374 
	C229.735229,317.073853 229.753815,316.702362 229.772385,316.330841 
	C229.061340,316.069061 228.350296,315.807281 226.792816,315.532745 
M250.154236,303.622040 
	C245.968307,314.286804 241.782364,324.951599 237.596436,335.616364 
	C238.009644,335.841034 238.422852,336.065735 238.836060,336.290405 
	C239.502014,335.530884 240.637680,334.840607 240.761505,334.001099 
	C242.047012,325.286346 247.790634,324.002167 255.102997,325.142700 
	C255.752792,325.244080 256.457001,325.273254 257.093750,325.137817 
	C262.192627,324.053070 264.685974,326.465668 265.879028,331.206940 
	C266.344025,333.054840 267.655365,334.689758 268.581207,336.421692 
	C269.115997,336.125488 269.650787,335.829254 270.185577,335.533051 
	C265.878357,324.656860 261.631958,313.755737 257.197357,302.931732 
	C256.543732,301.336426 254.998245,300.106476 253.865417,298.707489 
	C252.725769,300.114777 251.586136,301.522034 250.154236,303.622040 
M304.912140,299.073425 
	C305.622559,299.679565 306.310089,300.775177 307.047241,300.809662 
	C310.839661,300.987030 314.644806,300.891846 319.223511,300.891846 
	C319.223511,312.911163 319.223511,324.470001 319.223511,336.028839 
	C319.751831,336.032166 320.280151,336.035461 320.808472,336.038757 
	C320.808472,324.462555 320.808472,312.886383 320.808472,300.486755 
	C326.151947,300.486755 330.723633,300.486755 335.295349,300.486755 
	C335.269562,299.916687 335.243774,299.346649 335.217987,298.776581 
	C325.365875,298.776581 315.513763,298.776581 304.912140,299.073425 
M276.955261,309.522278 
	C276.955261,318.275848 276.955261,327.029419 276.955261,335.470459 
	C285.036804,335.470459 292.466125,335.470459 299.895447,335.470459 
	C299.899933,335.029816 299.904449,334.589172 299.908936,334.148529 
	C293.147491,334.148529 286.386047,334.148529 278.729370,334.148529 
	C278.729370,321.872894 278.729370,310.378418 278.729370,298.883911 
	C278.138000,298.892090 277.546661,298.900269 276.955292,298.908478 
	C276.955292,302.116821 276.955292,305.325195 276.955261,309.522278 
M305.849091,357.932159 
	C306.108093,354.059204 306.367065,350.186218 306.635620,346.170319 
	C305.973389,346.170319 303.886597,346.170319 302.406403,346.170319 
	C302.951630,348.190643 303.667419,350.038849 303.907562,351.946869 
	C304.176208,354.081726 303.979584,356.272949 304.112152,358.431854 
	C304.121521,358.584167 305.175201,358.672363 305.849091,357.932159 
z"/>
<path fill="#D5E4EC" opacity="1.000000" stroke="none" 
	d="
M230.203033,139.040039 
	C230.157639,139.475021 230.112228,139.910004 230.060822,141.135498 
	C230.088043,155.278641 230.121262,168.631302 230.154465,181.983948 
	C228.445602,182.288803 226.738678,182.845245 225.027573,182.858398 
	C212.200684,182.957077 199.372955,182.946121 186.545563,182.987823 
	C186.234482,182.988831 185.924088,183.202179 185.421143,183.387222 
	C185.421143,196.769928 185.421143,210.221985 185.421143,224.395538 
	C189.055222,224.395538 192.661865,224.395569 196.268494,224.395538 
	C205.931335,224.395447 215.594452,224.357895 225.256714,224.433044 
	C226.815308,224.445175 228.370026,224.958878 229.992661,226.093918 
	C230.104874,240.294937 230.150955,253.642776 230.197037,266.990601 
	C230.160995,267.159637 230.124939,267.328644 230.107635,268.020020 
	C230.419830,268.662537 230.713272,268.782715 231.006699,268.902893 
	C244.466705,268.902893 257.926727,268.902893 271.847168,268.902893 
	C271.847168,254.031586 271.847168,239.431381 271.847168,224.408752 
	C286.720703,224.408752 301.139191,224.408752 315.824219,224.408752 
	C315.824219,210.541382 315.824219,197.101578 315.824219,182.826385 
	C297.688019,183.748642 279.360596,181.159912 260.204773,184.722672 
	C271.766846,192.042191 274.149139,200.991470 266.572388,211.860748 
	C254.779999,228.777542 247.234604,228.793655 235.047455,212.054520 
	C232.987656,209.225372 231.979126,205.404755 231.252548,201.883789 
	C230.151886,196.550140 231.125519,191.497894 235.956329,188.084000 
	C240.776840,184.677368 245.636581,185.325424 250.699799,188.635849 
	C258.512939,180.766983 268.445465,179.401901 279.112244,179.681458 
	C292.251953,180.025833 305.407562,179.763733 318.824768,179.763733 
	C318.824768,195.656281 318.824768,211.244186 318.824768,227.324860 
	C304.452484,227.324860 290.048706,227.324860 275.085236,227.324860 
	C275.085236,242.352600 275.085236,256.904907 275.085236,271.769714 
	C258.813141,271.769714 243.102173,271.769714 226.908997,271.769714 
	C226.908997,257.086517 226.908997,242.511169 226.908997,227.588120 
	C211.985962,227.588120 197.538696,227.588120 182.705032,227.588120 
	C182.705032,211.674332 182.705032,196.110779 182.705032,180.061508 
	C197.111145,180.061508 211.688583,180.061508 226.747742,180.061508 
	C226.747742,165.041595 226.747742,150.491776 226.747742,135.615723 
	C242.950073,135.615723 258.668640,135.615723 274.885071,135.615723 
	C274.885071,148.647812 274.918060,161.428680 274.796997,174.208099 
	C274.790253,174.919357 273.509155,175.618546 272.821198,176.323349 
	C272.458618,176.119934 272.096069,175.916534 271.733490,175.713120 
	C271.733490,164.435547 271.733490,153.157959 271.729797,140.949249 
	C270.509308,139.360672 269.299408,138.147339 268.074677,138.132187 
	C256.412109,137.987686 244.746887,138.023041 233.082916,138.089645 
	C232.121170,138.095139 231.162918,138.708908 230.203033,139.040039 
M243.850494,217.701752 
	C246.728104,218.812851 250.391617,221.639496 252.349335,220.742630 
	C261.577789,216.514938 266.967499,209.012527 267.416656,198.523224 
	C267.578949,194.733795 266.225342,191.668564 262.652740,189.932175 
	C259.169983,188.239456 255.956558,188.622131 253.320068,191.005447 
	C254.208038,194.493866 255.388580,197.626953 255.717346,200.847031 
	C256.045380,204.059952 254.273102,206.322342 250.734940,206.296936 
	C247.501862,206.273727 245.659531,204.316956 245.972519,201.207413 
	C246.311203,197.842468 247.325851,194.545578 248.077805,191.070480 
	C244.572800,188.621170 241.464432,187.727386 238.925583,190.111053 
	C236.642838,192.254272 234.416962,195.682510 234.277039,198.643707 
	C233.921265,206.172226 237.622238,212.324982 243.850494,217.701752 
M249.573639,196.906021 
	C249.391953,197.695114 249.028488,198.493988 249.070343,199.271042 
	C249.136383,200.497421 249.366516,201.749741 249.795334,202.890274 
	C249.874191,203.100021 251.794113,203.027481 251.890228,202.749008 
	C252.281219,201.616348 252.500870,200.333099 252.387833,199.142975 
	C252.268875,197.890213 251.698288,196.680344 251.325027,195.451736 
	C250.820526,195.715530 250.316040,195.979340 249.573639,196.906021 
z"/>
<path fill="#0B3549" opacity="1.000000" stroke="none" 
	d="
M274.849670,356.010345 
	C273.258087,355.066681 271.666504,354.123016 270.020599,353.147156 
	C269.743866,353.802765 269.441315,354.163086 269.522614,354.378510 
	C272.181091,361.419220 272.190186,361.257874 264.796844,361.088745 
	C261.902588,361.022491 258.988129,361.851105 256.082367,362.268951 
	C255.288361,362.383148 254.065247,362.871490 253.762192,362.535614 
	C249.538742,357.854919 245.111374,361.136627 240.890869,362.258362 
	C236.930481,363.310974 233.484055,363.189850 229.983765,360.771179 
	C228.734329,359.907837 226.598083,359.820038 224.982346,360.084686 
	C218.758850,361.104095 212.808533,362.042725 206.213028,361.738281 
	C199.061432,361.408112 191.317795,358.349396 183.922516,362.208618 
	C182.604446,362.896515 179.919418,360.964905 177.662842,360.171570 
	C174.309036,364.217407 168.537827,364.072205 164.874557,360.465485 
	C160.396622,360.465485 157.079437,360.658203 153.793854,360.418213 
	C149.381683,360.095886 149.673019,356.930267 150.299438,353.819153 
	C150.786392,351.400574 151.278015,348.961304 152.071320,346.634796 
	C152.493362,345.397034 153.560562,344.379303 154.336548,343.262268 
	C155.498352,344.278137 157.130096,345.080414 157.711807,346.360016 
	C158.583618,348.277710 158.718140,350.530579 159.109756,352.375122 
	C163.001190,349.168274 166.209930,346.464600 169.502319,343.866943 
	C170.078720,343.412201 171.032089,343.151184 171.767853,343.226349 
	C179.061707,343.971619 186.330292,345.163300 193.639221,345.492706 
	C198.636734,345.717957 203.680862,344.629883 208.716202,344.423950 
	C210.937195,344.333130 213.287476,344.667450 215.403107,345.352264 
	C218.937057,346.496277 221.778519,349.632690 226.090149,345.760925 
	C228.136093,343.923767 232.570221,344.239075 235.830856,344.547455 
	C236.914902,344.649963 238.015198,347.685059 238.540695,349.540192 
	C238.915253,350.862396 238.003632,352.513489 238.253311,353.913025 
	C239.032593,358.281281 241.746628,359.341339 245.562897,357.058380 
	C246.680756,356.389679 247.937927,355.953918 249.446182,355.268219 
	C248.989960,353.806152 247.965958,352.218231 248.176636,350.815735 
	C248.521027,348.523102 249.092285,345.671387 250.659241,344.341064 
	C251.940048,343.253754 254.908325,344.429688 256.963409,343.927185 
	C263.170013,342.409515 268.693787,346.314636 274.907440,346.519562 
	C275.013641,350.124573 274.931671,353.067444 274.849670,356.010345 
M209.897049,351.935791 
	C210.608078,353.165924 211.074692,355.058380 212.100037,355.436798 
	C213.092773,355.803131 214.660339,354.611877 215.975418,354.104767 
	C215.941635,353.502075 215.907852,352.899414 215.874084,352.296722 
	C214.060059,352.026215 212.246048,351.755707 209.897049,351.935791 
M175.549744,354.339783 
	C176.448166,354.690826 177.346603,355.041840 178.245026,355.392883 
	C178.351501,354.950348 178.457977,354.507843 178.564438,354.065308 
	C177.603271,353.948120 176.642105,353.830933 175.549744,354.339783 
z"/>
<path fill="#CEE1EA" opacity="1.000000" stroke="none" 
	d="
M131.093445,334.710815 
	C131.039551,322.608154 131.039551,310.982635 131.039551,299.021729 
	C138.177231,299.021729 145.138916,298.507599 151.946335,299.307037 
	C154.256897,299.578400 157.093536,302.806793 158.074097,305.315460 
	C159.767563,309.648071 158.459167,313.827118 154.086716,316.456421 
	C158.957794,320.440094 160.741974,325.344666 158.835953,330.304901 
	C156.783035,335.647430 152.157730,336.240631 147.288010,336.038177 
	C141.905304,335.814362 136.527359,335.476288 131.093445,334.710815 
M133.778244,328.422852 
	C133.778244,330.165436 133.778244,331.908020 133.778244,333.823700 
	C139.726395,333.823700 145.008026,334.012604 150.269485,333.767792 
	C155.028122,333.546356 156.722778,330.278625 156.731598,325.966064 
	C156.739944,321.876373 155.073975,318.538666 150.717102,318.200348 
	C145.184509,317.770691 139.593246,318.096405 133.779877,318.096405 
	C133.779877,321.525940 133.779877,324.489227 133.778244,328.422852 
M155.851913,309.158173 
	C156.176880,304.833466 155.047592,301.330597 150.046341,301.071625 
	C144.789398,300.799438 139.507416,301.010712 134.188385,301.010712 
	C134.188385,306.051300 134.188385,310.712341 134.188385,315.399658 
	C139.425659,315.399658 144.232925,315.500488 149.033615,315.365967 
	C152.525635,315.268158 155.090607,313.731659 155.851913,309.158173 
z"/>
<path fill="#C1D7E0" opacity="1.000000" stroke="none" 
	d="
M368.164734,321.128967 
	C367.350647,319.737976 366.562866,318.074127 365.726990,318.049591 
	C358.617798,317.840790 351.499817,317.930145 343.245178,317.930145 
	C343.245178,324.229126 343.245178,330.166382 343.245178,336.103607 
	C342.679352,336.055573 342.113556,336.007507 341.547729,335.959442 
	C341.547729,323.602905 341.547729,311.246399 341.547729,298.889862 
	C342.063202,298.794983 342.578674,298.700104 343.094177,298.605225 
	C343.338043,301.131348 343.691620,303.652893 343.797211,306.184784 
	C343.920105,309.131805 343.825867,312.087891 343.825867,315.270752 
	C352.117798,315.270752 359.847870,315.270752 368.706421,315.270752 
	C368.706421,309.603241 368.706421,304.136688 368.706421,298.670166 
	C369.276703,298.707153 369.846954,298.744171 370.417236,298.781158 
	C370.417236,311.137909 370.417236,323.494629 370.417236,335.880127 
	C368.165863,334.601624 368.165863,334.601624 368.164734,321.128967 
z"/>
<path fill="#CEE1EA" opacity="1.000000" stroke="none" 
	d="
M178.014221,317.888184 
	C175.041321,317.888977 172.565399,317.888977 169.011475,317.888977 
	C169.011475,324.140442 169.011475,330.106171 169.011475,336.071899 
	C168.477432,336.030457 167.943405,335.989044 167.409363,335.947601 
	C167.409363,323.586884 167.409363,311.226135 167.409363,298.303436 
	C170.882645,300.755432 168.996155,303.951447 169.320923,306.536804 
	C169.665421,309.279205 169.398346,312.098419 169.398346,315.219208 
	C177.788284,315.219208 185.663147,315.219208 194.062653,315.219208 
	C194.062653,309.742004 194.062653,304.336700 194.062653,298.931366 
	C194.440338,298.792145 194.818039,298.652893 195.195724,298.513672 
	C195.711639,299.248444 196.583923,299.935699 196.689301,300.725250 
	C197.993744,310.499542 196.785339,334.113708 194.365173,336.530396 
	C194.365173,330.137543 194.365173,324.330109 194.365173,317.887390 
	C188.676422,317.887390 183.593811,317.887390 178.014221,317.888184 
z"/>
<path fill="#DAEDF4" opacity="1.000000" stroke="none" 
	d="
M227.216034,315.539124 
	C228.350296,315.807281 229.061340,316.069061 229.772385,316.330841 
	C229.753815,316.702362 229.735229,317.073853 229.716660,317.445374 
	C222.435577,317.445374 215.154495,317.445374 207.620667,317.445374 
	C207.620667,323.347961 207.620667,328.434082 207.620667,334.218872 
	C215.587418,334.218872 223.561523,334.218872 231.535629,334.218872 
	C231.530884,334.636139 231.526138,335.053436 231.521393,335.470703 
	C222.804993,335.470703 214.088593,335.470703 205.139923,335.470703 
	C205.139923,323.514404 205.139923,311.429382 205.139923,299.067383 
	C213.810196,299.067383 222.452438,299.067383 231.094666,299.067383 
	C231.121277,299.507141 231.147873,299.946899 231.174484,300.386658 
	C223.390808,300.386658 215.607132,300.386658 207.598083,300.386658 
	C207.598083,305.769318 207.598083,310.202576 207.598083,315.532745 
	C213.973984,315.532745 220.383392,315.532745 227.216034,315.539124 
z"/>
<path fill="#D4E6EF" opacity="1.000000" stroke="none" 
	d="
M250.300354,303.275665 
	C251.586136,301.522034 252.725769,300.114777 253.865417,298.707489 
	C254.998245,300.106476 256.543732,301.336426 257.197357,302.931732 
	C261.631958,313.755737 265.878357,324.656860 270.185577,335.533051 
	C269.650787,335.829254 269.115997,336.125488 268.581207,336.421692 
	C267.655365,334.689758 266.344025,333.054840 265.879028,331.206940 
	C264.685974,326.465668 262.192627,324.053070 257.093750,325.137817 
	C256.457001,325.273254 255.752792,325.244080 255.102997,325.142700 
	C247.790634,324.002167 242.047012,325.286346 240.761505,334.001099 
	C240.637680,334.840607 239.502014,335.530884 238.836060,336.290405 
	C238.422852,336.065735 238.009644,335.841034 237.596436,335.616364 
	C241.782364,324.951599 245.968307,314.286804 250.300354,303.275665 
M245.885193,321.248688 
	C246.327148,321.835938 246.756485,322.922211 247.212967,322.933716 
	C252.097977,323.057098 256.987274,323.010468 262.551483,323.010468 
	C259.584290,315.535492 256.894714,308.759827 253.850952,301.091888 
	C250.970062,308.298615 248.528976,314.405090 245.885193,321.248688 
z"/>
<path fill="#E0EFF6" opacity="1.000000" stroke="none" 
	d="
M305.286896,298.924988 
	C315.513763,298.776581 325.365875,298.776581 335.217987,298.776581 
	C335.243774,299.346649 335.269562,299.916687 335.295349,300.486755 
	C330.723633,300.486755 326.151947,300.486755 320.808472,300.486755 
	C320.808472,312.886383 320.808472,324.462555 320.808472,336.038757 
	C320.280151,336.035461 319.751831,336.032166 319.223511,336.028839 
	C319.223511,324.470001 319.223511,312.911163 319.223511,300.891846 
	C314.644806,300.891846 310.839661,300.987030 307.047241,300.809662 
	C306.310089,300.775177 305.622559,299.679565 305.286896,298.924988 
z"/>
<path fill="#1A4053" opacity="1.000000" stroke="none" 
	d="
M284.808319,347.098999 
	C286.634979,347.420441 289.399628,347.112457 290.115448,348.179291 
	C292.423859,351.619446 294.358795,351.262360 296.816132,348.095825 
	C297.203583,348.339752 297.591034,348.583710 297.978485,348.827637 
	C297.325684,352.390839 296.672913,355.954071 296.104858,359.054688 
	C288.856812,360.826813 289.187195,354.454010 285.741119,350.884491 
	C285.274872,353.699310 284.929413,355.784912 284.582947,357.876678 
	C282.284119,357.572144 280.078888,357.279999 277.394043,356.553284 
	C276.967468,354.818878 277.096771,353.516907 277.060242,352.219604 
	C276.911224,346.931519 277.341461,346.598785 282.497620,347.720032 
	C283.190094,347.870636 284.034363,347.323181 284.808319,347.098999 
z"/>
<path fill="#E8FAFF" opacity="1.000000" stroke="none" 
	d="
M276.955261,309.027924 
	C276.955292,305.325195 276.955292,302.116821 276.955292,298.908478 
	C277.546661,298.900269 278.138000,298.892090 278.729370,298.883911 
	C278.729370,310.378418 278.729370,321.872894 278.729370,334.148529 
	C286.386047,334.148529 293.147491,334.148529 299.908936,334.148529 
	C299.904449,334.589172 299.899933,335.029816 299.895447,335.470459 
	C292.466125,335.470459 285.036804,335.470459 276.955261,335.470459 
	C276.955261,327.029419 276.955261,318.275848 276.955261,309.027924 
z"/>
<path fill="#0F2C3A" opacity="1.000000" stroke="none" 
	d="
M230.658813,139.029541 
	C231.162918,138.708908 232.121170,138.095139 233.082916,138.089645 
	C244.746887,138.023041 256.412109,137.987686 268.074677,138.132187 
	C269.299408,138.147339 270.509308,139.360672 271.640717,140.485092 
	C262.224884,140.302200 252.899277,139.565048 243.561676,139.042450 
	C239.425186,138.810944 235.264374,139.013504 230.658813,139.029541 
z"/>
<path fill="#0F2C3A" opacity="1.000000" stroke="none" 
	d="
M230.410782,266.639404 
	C230.150955,253.642776 230.104874,240.294937 230.124176,226.483978 
	C230.459122,228.629974 230.963715,231.239716 230.957245,233.848175 
	C230.930374,244.661713 230.749115,255.474884 230.410782,266.639404 
z"/>
<path fill="#0F2C3A" opacity="1.000000" stroke="none" 
	d="
M230.378510,181.639191 
	C230.121262,168.631302 230.088043,155.278641 230.120331,141.459900 
	C230.457291,143.408188 230.967880,145.823425 230.959290,148.236786 
	C230.920074,159.256287 230.735123,170.275284 230.378510,181.639191 
z"/>
<path fill="#7997AD" opacity="1.000000" stroke="none" 
	d="
M305.796204,358.361267 
	C305.175201,358.672363 304.121521,358.584167 304.112152,358.431854 
	C303.979584,356.272949 304.176208,354.081726 303.907562,351.946869 
	C303.667419,350.038849 302.951630,348.190643 302.406403,346.170319 
	C303.886597,346.170319 305.973389,346.170319 306.635620,346.170319 
	C306.367065,350.186218 306.108093,354.059204 305.796204,358.361267 
z"/>
<path fill="#7997AD" opacity="1.000000" stroke="none" 
	d="
M284.439880,346.952942 
	C284.034363,347.323181 283.190094,347.870636 282.497620,347.720032 
	C277.341461,346.598785 276.911224,346.931519 277.060242,352.219604 
	C277.096771,353.516907 276.967468,354.818878 276.992615,356.570129 
	C276.786591,357.967560 276.502380,358.913483 276.218140,359.859406 
	C275.953979,359.825897 275.689789,359.792389 275.425598,359.758881 
	C275.269897,358.760101 275.114166,357.761353 274.904053,356.386475 
	C274.931671,353.067444 275.013641,350.124573 275.114746,346.750214 
	C278.113068,346.481445 281.092285,346.644165 284.439880,346.952942 
z"/>
<path fill="#0F2C3A" opacity="1.000000" stroke="none" 
	d="
M230.901215,268.728882 
	C230.713272,268.782715 230.419830,268.662537 230.164185,268.273010 
	C230.434753,268.149841 230.632660,268.333588 230.901215,268.728882 
z"/>
<path fill="#093448" opacity="1.000000" stroke="none" 
	d="
M243.577423,217.467438 
	C237.622238,212.324982 233.921265,206.172226 234.277039,198.643707 
	C234.416962,195.682510 236.642838,192.254272 238.925583,190.111053 
	C241.464432,187.727386 244.572800,188.621170 248.077805,191.070480 
	C247.325851,194.545578 246.311203,197.842468 245.972519,201.207413 
	C245.659531,204.316956 247.501862,206.273727 250.734940,206.296936 
	C254.273102,206.322342 256.045380,204.059952 255.717346,200.847031 
	C255.388580,197.626953 254.208038,194.493866 253.320068,191.005447 
	C255.956558,188.622131 259.169983,188.239456 262.652740,189.932175 
	C266.225342,191.668564 267.578949,194.733795 267.416656,198.523224 
	C266.967499,209.012527 261.577789,216.514938 252.349335,220.742630 
	C250.391617,221.639496 246.728104,218.812851 243.577423,217.467438 
z"/>
<path fill="#1A4053" opacity="1.000000" stroke="none" 
	d="
M249.692596,196.574585 
	C250.316040,195.979340 250.820526,195.715530 251.325027,195.451736 
	C251.698288,196.680344 252.268875,197.890213 252.387833,199.142975 
	C252.500870,200.333099 252.281219,201.616348 251.890228,202.749008 
	C251.794113,203.027481 249.874191,203.100021 249.795334,202.890274 
	C249.366516,201.749741 249.136383,200.497421 249.070343,199.271042 
	C249.028488,198.493988 249.391953,197.695114 249.692596,196.574585 
z"/>
<path fill="#023047" opacity="1.000000" stroke="none" 
	d="
M210.164551,351.710480 
	C212.246048,351.755707 214.060059,352.026215 215.874084,352.296722 
	C215.907852,352.899414 215.941635,353.502075 215.975418,354.104767 
	C214.660339,354.611877 213.092773,355.803131 212.100037,355.436798 
	C211.074692,355.058380 210.608078,353.165924 210.164551,351.710480 
z"/>
<path fill="#023047" opacity="1.000000" stroke="none" 
	d="
M175.615341,354.026794 
	C176.642105,353.830933 177.603271,353.948120 178.564438,354.065308 
	C178.457977,354.507843 178.351501,354.950348 178.245026,355.392883 
	C177.346603,355.041840 176.448166,354.690826 175.615341,354.026794 
z"/>
<path fill="#073146" opacity="1.000000" stroke="none" 
	d="
M133.779053,327.937683 
	C133.779877,324.489227 133.779877,321.525940 133.779877,318.096405 
	C139.593246,318.096405 145.184509,317.770691 150.717102,318.200348 
	C155.073975,318.538666 156.739944,321.876373 156.731598,325.966064 
	C156.722778,330.278625 155.028122,333.546356 150.269485,333.767792 
	C145.008026,334.012604 139.726395,333.823700 133.778244,333.823700 
	C133.778244,331.908020 133.778244,330.165436 133.779053,327.937683 
z"/>
<path fill="#0B3549" opacity="1.000000" stroke="none" 
	d="
M155.786987,309.556274 
	C155.090607,313.731659 152.525635,315.268158 149.033615,315.365967 
	C144.232925,315.500488 139.425659,315.399658 134.188385,315.399658 
	C134.188385,310.712341 134.188385,306.051300 134.188385,301.010712 
	C139.507416,301.010712 144.789398,300.799438 150.046341,301.071625 
	C155.047592,301.330597 156.176880,304.833466 155.786987,309.556274 
z"/>
<path fill="#0B3549" opacity="1.000000" stroke="none" 
	d="
M245.986542,320.880127 
	C248.528976,314.405090 250.970062,308.298615 253.850952,301.091888 
	C256.894714,308.759827 259.584290,315.535492 262.551483,323.010468 
	C256.987274,323.010468 252.097977,323.057098 247.212967,322.933716 
	C246.756485,322.922211 246.327148,321.835938 245.986542,320.880127 
z"/>
</svg>